<?xml version="1.0" encoding="utf-8"?>
<!-- Generator: Adobe Illustrator 18.1.0, SVG Export Plug-In . SVG Version: 6.00 Build 0)  -->
<!DOCTYPE svg PUBLIC "-//W3C//DTD SVG 1.1//EN" "http://www.w3.org/Graphics/SVG/1.1/DTD/svg11.dtd">
<svg version="1.1" id="Layer_1" xmlns="http://www.w3.org/2000/svg" xmlns:xlink="http://www.w3.org/1999/xlink" x="0px" y="0px"
	 viewBox="0 0 58 60" enable-background="new 0 0 58 60" xml:space="preserve">
<g>
	<g>
		<g id="rect2470_7_">
			<g>
				<path fill="#FFFFFF" stroke="#C8C8C8" stroke-width="0.5" d="M12.8,0.7h26.9c6,4.2,12.8,10.6,17.5,17.5v41.4H12.8V0.7z"/>
			</g>
		</g>
		<g id="path3395_7_">
			<g>
				<path fill="#DBDBDB" d="M39.7,0.7c6.5,4.7,12.7,10.5,17.5,17.5c-3.1-3.2-7.3-4.9-12.4-4.7C45.4,7.5,43.1,3.7,39.7,0.7z"/>
				<path fill="none" stroke="#C8C8C8" stroke-width="0.5" d="M39.7,0.7c6.5,4.7,12.7,10.5,17.5,17.5c-3.1-3.2-7.3-4.9-12.4-4.7
					C45.4,7.5,43.1,3.7,39.7,0.7z"/>
			</g>
		</g>
		<rect x="0.5" y="4.9" fill="#776EC4" width="33.2" height="13.5"/>
		<g>
			<path fill="#FFFFFF" d="M11.8,7.4c0.7,0,1.2,0.2,1.6,0.5C13.8,8.3,14,8.9,14,9.6c0,0.6-0.1,1-0.3,1.4c-0.2,0.4-0.6,0.6-1,0.7v0
				c0.4,0.1,0.7,0.2,0.9,0.4c0.2,0.2,0.3,0.5,0.4,1c0,0.2,0,0.3,0,0.5c0,0.2,0,0.4,0,0.6c0,0.4,0,0.8,0.1,1c0,0.2,0.1,0.4,0.3,0.5
				v0.1h-1.8c-0.1-0.1-0.1-0.2-0.2-0.4c0-0.2,0-0.3,0-0.5l0-1.6c0-0.3-0.1-0.6-0.2-0.8c-0.1-0.2-0.4-0.3-0.7-0.3h-0.9v3.5H8.7V7.4
				H11.8z M11.1,11.1c0.4,0,0.7-0.1,0.9-0.3c0.2-0.2,0.3-0.5,0.3-1c0-0.8-0.4-1.1-1.2-1.1h-0.8v2.4H11.1z"/>
			<path fill="#FFFFFF" d="M19.8,8.8H18v6.9h-1.7V8.8h-1.8V7.4h5.3V8.8z"/>
			<path fill="#FFFFFF" d="M25.1,7.4v1.4h-3v1.9h2.8v1.4h-2.8v3.6h-1.7V7.4H25.1z"/>
		</g>
		<rect x="22.7" y="26.8" fill="#776EC4" width="23" height="3.9"/>
		<rect x="22.7" y="35" fill="#776EC4" width="23" height="3.9"/>
		<rect x="22.7" y="42.9" fill="#776EC4" width="23" height="3.9"/>
	</g>
</g>
</svg>
